<svg width="48" height="49" viewBox="0 0 48 49" fill="none" xmlns="http://www.w3.org/2000/svg">
<path d="M20 21.8333H10.6667C10.3131 21.8333 9.97392 21.6928 9.72387 21.4428C9.47382 21.1927 9.33334 20.8536 9.33334 20.5V11.1666C9.33334 10.813 9.47382 10.4739 9.72387 10.2238C9.97392 9.97379 10.3131 9.83331 10.6667 9.83331H20C20.3536 9.83331 20.6928 9.97379 20.9428 10.2238C21.1929 10.4739 21.3333 10.813 21.3333 11.1666V20.5C21.3333 20.8536 21.1929 21.1927 20.9428 21.4428C20.6928 21.6928 20.3536 21.8333 20 21.8333Z" fill="#7C3AED"/>
<path d="M20 39.1666H10.6667C10.3131 39.1666 9.97392 39.0262 9.72387 38.7761C9.47382 38.5261 9.33334 38.1869 9.33334 37.8333V28.5C9.33334 28.1463 9.47382 27.8072 9.72387 27.5571C9.97392 27.3071 10.3131 27.1666 10.6667 27.1666H20C20.3536 27.1666 20.6928 27.3071 20.9428 27.5571C21.1929 27.8072 21.3333 28.1463 21.3333 28.5V37.8333C21.3333 38.1869 21.1929 38.5261 20.9428 38.7761C20.6928 39.0262 20.3536 39.1666 20 39.1666Z" fill="#7C3AED"/>
<path d="M25.3333 11.1666H38.6667V13.8333H25.3333V11.1666Z" fill="#1DB5BE"/>
<path d="M38.6667 28.5H25.3333V31.1667H38.6667V28.5Z" fill="#1DB5BE"/>
<path d="M38.6667 35.1666H25.3333V37.8333H38.6667V35.1666Z" fill="#C4B5FD"/>
<path d="M38.6667 17.8333H25.3333V20.5H38.6667V17.8333Z" fill="#C4B5FD"/>
</svg>
